<?xml version="1.0" standalone="no"?>
<!DOCTYPE svg PUBLIC "-//W3C//DTD SVG 20010904//EN"
 "http://www.w3.org/TR/2001/REC-SVG-20010904/DTD/svg10.dtd">
<svg version="1.0" xmlns="http://www.w3.org/2000/svg"
 width="296.000000pt" height="296.000000pt" viewBox="0 0 296.000000 296.000000"
 preserveAspectRatio="xMidYMid meet">
<metadata>
Created by potrace 1.11, written by Peter Selinger 2001-2013
</metadata>
<g transform="translate(0.000000,296.000000) scale(0.100000,-0.100000)"
fill="#000000" stroke="none">
<path d="M1705 2638 c-11 -6 -23 -16 -27 -22 -4 -6 -8 -82 -8 -168 0 -145 2
-160 20 -178 24 -24 57 -26 88 -4 21 15 22 21 22 184 0 163 -1 169 -22 184
-26 19 -45 20 -73 4z"/>
<path d="M947 2362 c-34 -37 -22 -73 59 -178 41 -54 84 -109 95 -121 38 -45
119 -16 119 42 0 15 -34 69 -93 147 -85 112 -97 123 -128 126 -24 2 -40 -3
-52 -16z"/>
<path d="M2439 2368 c-26 -21 -176 -222 -183 -245 -16 -50 38 -97 90 -77 25
10 187 215 198 251 7 22 -8 62 -28 75 -17 12 -61 9 -77 -4z"/>
<path d="M1624 2101 c-171 -28 -334 -123 -444 -260 l-45 -56 -115 0 c-136 -1
-209 -17 -325 -74 -187 -92 -323 -261 -375 -467 -11 -43 -20 -99 -20 -126 0
-40 -3 -48 -18 -48 -36 0 -140 -61 -182 -106 -23 -25 -54 -71 -68 -102 -23
-49 -27 -70 -27 -152 0 -87 3 -101 32 -161 39 -79 102 -140 181 -177 l57 -27
835 0 c803 0 837 1 895 20 128 42 247 156 295 282 30 79 37 208 17 287 l-16
60 34 56 c84 139 117 348 81 513 -56 251 -256 459 -505 522 -77 20 -215 27
-287 16z m256 -148 c328 -89 508 -457 374 -762 -14 -30 -27 -57 -29 -60 -3 -2
-27 16 -53 42 -57 52 -104 78 -186 102 -62 18 -178 23 -234 11 -26 -6 -33 -4
-38 11 -23 72 -94 192 -153 255 -68 73 -184 158 -246 178 -19 6 -35 15 -35 19
0 4 24 30 53 58 149 147 349 200 547 146z m-698 -319 c229 -68 384 -246 435
-501 l8 -41 65 31 c58 28 75 31 160 32 86 0 101 -3 153 -29 105 -53 179 -160
193 -278 16 -135 -73 -281 -208 -344 l-63 -29 -775 -3 c-546 -2 -790 0 -827 8
-28 6 -70 24 -92 40 -96 70 -126 204 -68 303 48 81 135 127 240 127 l32 0 -4
81 c-4 107 12 187 60 286 124 259 422 396 691 317z"/>
<path d="M2577 1612 c-23 -25 -21 -68 3 -92 18 -18 33 -20 178 -20 86 0 162 4
168 8 37 24 39 93 4 112 -10 6 -90 10 -178 10 -141 0 -161 -2 -175 -18z"/>
<path d="M2466 998 c-19 -27 -20 -58 -3 -81 24 -32 241 -187 261 -187 40 0 66
28 66 69 0 38 -3 41 -122 130 -133 100 -172 113 -202 69z"/>
</g>
</svg>
